<?xml version="1.0" encoding="utf-8"?>
<!-- Generator: Adobe Illustrator 22.0.0, SVG Export Plug-In . SVG Version: 6.00 Build 0)  -->
<svg version="1.1" id="Layer_1" xmlns="http://www.w3.org/2000/svg" xmlns:xlink="http://www.w3.org/1999/xlink" x="0px" y="0px"
	 viewBox="0 0 233.3 214.9" style="enable-background:new 0 0 233.3 214.9;" xml:space="preserve">
<style type="text/css">
	.st0{clip-path:url(#SVGID_2_);fill:#D35D52;}
	.st1{clip-path:url(#SVGID_2_);fill:none;stroke:#000000;stroke-width:6;stroke-miterlimit:10;}
</style>
<g>
	<defs>
		<rect id="SVGID_1_" x="-218.3" y="-407" width="595.3" height="841.9"/>
	</defs>
	<clipPath id="SVGID_2_">
		<use xlink:href="#SVGID_1_"  style="overflow:visible;"/>
	</clipPath>
	<path class="st0" d="M181.7,13.9v109.2C142,48.1,130.4,34.8,134.2,13.9H97.1v106.9L49.7,32.3l-0.1,0.1V13.9
		c-48.8,6.5-33.4,43.9-36,96c1.4,52.3-9.8,84.9,36,90.9V98c5.6,13.1,55.4,93.8,47.5,102.8h37.2V100.2c2.6,7.6,54.9,93.6,47.5,100.6
		c48.8-6.5,33.4-43.9,36-96C216.3,52.5,227.5,19.9,181.7,13.9"/>
	<path class="st1" d="M181.7,13.9v109.2C142,48.1,130.4,34.8,134.2,13.9H97.1v106.9L49.7,32.3l-0.1,0.1V13.9
		c-48.8,6.5-33.4,43.9-36,96c1.4,52.3-9.8,84.9,36,90.9V98c5.6,13.1,55.4,93.8,47.5,102.8h37.2V100.2c2.6,7.6,54.9,93.6,47.5,100.6
		c48.8-6.5,33.4-43.9,36-96C216.3,52.5,227.5,19.9,181.7,13.9z"/>
</g>
</svg>
