<svg id="Capa_1" enable-background="new 0 0 512.008 512.008" height="512" viewBox="0 0 512.008 512.008" width="512" xmlns="http://www.w3.org/2000/svg"><g><g><g><g><path d="m240.308 146.262 22.91 22.645c7.213 7.13 11.273 16.85 11.273 26.992v268.151c0 20.961-16.992 37.953-37.953 37.953h-82.231-106.354c-20.961 0-37.953-16.992-37.953-37.953v-268.151c0-10.142 4.06-19.863 11.273-26.992l22.91-22.645z" fill="#e4ecfe"/></g><g><path d="m240.308 146.262h-196.125c-14.359 0-26-11.641-26-26 0-14.359 11.641-26 26-26h196.125c14.359 0 26 11.641 26 26 0 14.359-11.641 26-26 26z" fill="#e4ecfe"/></g><g><g><path d="m-40.751 166.627h365.833v40h-365.833z" fill="#dbea82" transform="matrix(.383 -.924 .924 .383 -84.67 246.514)"/></g></g><g><path d="m50 247.418h184.491v214.584h-184.491z" fill="#e67e95"/></g></g><g id="XMLID_72_"><g id="XMLID_88_"><path d="m356.06 349.682c-10.711-31.166-44.658-47.75-75.823-37.037l-56.082 19.279c-31.165 10.713-47.74 44.665-37.025 75.829 14.704 42.764 54.762 81.905 97.699 92.747 19.019 4.802 39.161-2.121 51.208-17.603 27.197-34.951 34.721-90.449 20.023-133.215z" fill="#e67e95"/></g><g id="XMLID_76_"><g id="XMLID_81_"><path d="m341.499 335.23c.037.611-.017-.614 0 0z" fill="#bbffc6"/></g><g id="XMLID_80_"><path d="m189.728 387.402c-.364-.494.347.505 0 0z" fill="#bbffc6"/></g><g id="XMLID_78_"><path d="m284.412 296.147-73.694 25.333c-26.578 9.136-36.909 42.761-20.99 65.923 19.515-2.212 37.6-14.549 46.025-33.842.047-.108.091-.214.138-.322 8.607 10.649 20.712 17.847 33.975 20.446 8.862-10.205 13.983-23.324 14.223-37.014.103.056.203.113.306.169 18.507 10.035 40.355 8.644 57.105-1.61-1.688-28.054-30.509-48.22-57.088-39.083z" fill="#b8e5a8"/></g></g></g><g id="XMLID_52_"><g id="XMLID_70_"><path d="m473.236 459.145c23.305-23.301 23.31-61.083.007-84.386l-41.934-41.934c-23.303-23.303-61.085-23.298-84.386.007-31.974 31.979-49.567 85.15-40.466 128.49 4.031 19.198 19.091 34.258 38.289 38.289 43.34 9.101 96.511-8.492 128.49-40.466z" fill="#e67e95"/></g><g id="XMLID_55_"><g id="XMLID_67_"><path d="m479.832 439.719c-.533.301.544-.285 0 0z" fill="#bbffc6"/></g><g id="XMLID_66_"><path d="m366.349 326.236c.285-.544-.301.534 0 0z" fill="#bbffc6"/></g><g id="XMLID_56_"><path d="m489.9 371.271-55.103-55.103c-19.873-19.873-54.62-14.401-68.447 10.067 10.551 16.564 29.573 27.401 50.606 26.506.118-.005.232-.012.35-.018-5.792 12.407-6.948 26.442-3.463 39.501 13.059 3.485 27.094 2.329 39.501-3.463-.005.117-.013.232-.018.35-.896 21.033 9.941 40.055 26.506 50.606 24.468-13.825 29.94-48.573 10.068-68.446z" fill="#b8e5a8"/></g></g></g></g><g><path d="m252.663 415.925c-1.796-5.222-7.485-8.007-12.708-6.204-5.223 1.796-8 7.485-6.205 12.708l1.795 5.22c1.426 4.146 5.304 6.751 9.456 6.751 1.078 0 2.175-.176 3.252-.547 5.223-1.796 8-7.485 6.205-12.708z"/><path d="m496.971 364.2-20.449-20.449 10.508-10.415c1.973-1.955 2.96-4.529 2.96-7.104 0-2.544-.965-5.089-2.897-7.039-3.888-3.923-10.22-3.951-14.142-.062l-10.571 10.479-20.511-20.512c-11.498-11.498-27.636-16.789-44.284-14.521-11.364 1.549-21.846 6.613-29.978 14.173-7.028 2.28-13.662 5.685-19.628 10.053-4.002-10.294-11.172-19.383-20.653-25.729-12.96-8.673-28.387-11.287-42.834-7.392v-89.782c0-12.729-5.191-25.159-14.243-34.104l-11.039-10.911c10.253-6.352 17.099-17.7 17.099-30.622 0-19.851-16.149-36-36-36h-23.229l22.859-55.114c1.017-2.45 1.018-5.204.003-7.655s-2.961-4.398-5.412-5.414l-36.952-15.315c-5.1-2.112-10.95.307-13.065 5.407l-32.387 78.09h-107.943c-19.85 0-36 16.149-36 36 0 12.922 6.846 24.271 17.099 30.622l-11.039 10.912c-9.052 8.944-14.243 21.376-14.243 34.103v268.151c0 26.44 21.511 47.952 47.953 47.952h188.586c9.661 0 19.045-2.925 26.957-8.306 6.204 2.69 12.518 4.89 18.886 6.498 4.811 1.215 9.7 1.812 14.565 1.812 10.55-.001 20.979-2.813 30.19-8.232 4.826 2.549 10.045 4.465 15.555 5.623 8.372 1.758 17.088 2.606 25.971 2.605 39.875-.002 82.958-17.104 111.644-45.787 7.788-7.786 13.642-17.348 17.018-27.759 7.557-8.131 12.619-18.612 14.168-29.973 2.269-16.644-3.024-32.785-14.522-44.283zm-96.684-49.807c10.396-1.422 20.399 1.808 27.439 8.848l55.102 55.103c7.041 7.04 10.265 17.041 8.848 27.438-1.166 8.546-5.403 16.287-11.674 21.659-11.013-9.379-17.288-23.51-16.668-38.241.002-.034.003-.069.004-.104.118-3.549-1.653-6.931-4.661-8.826-3.03-1.91-6.852-2.054-10.017-.376-.059.031-.117.063-.176.096-8.201 3.685-17.288 4.97-26.165 3.759-1.21-8.875.074-17.961 3.757-26.162.037-.066.073-.133.108-.2 1.676-3.179 1.517-7.012-.416-10.041-1.901-2.98-5.285-4.71-8.792-4.615-.042.002-.084.004-.126.006-14.719.599-28.846-5.657-38.224-16.669 5.374-6.272 13.115-10.51 21.661-11.675zm-102.572-10.467c6.383 0 12.793 1.958 18.486 5.769 7.168 4.797 12.265 12.002 14.34 19.994-13.267 5.783-28.724 5.219-41.687-1.81-.032-.017-.093-.05-.125-.066-4.882-2.581-10.919-.707-13.498 4.179-.786 1.487-1.158 3.084-1.157 4.659 0 .102.002.203.005.305-.247 9.066-3.086 17.883-8.111 25.392-8.508-2.809-16.11-7.951-21.862-14.86-.042-.061-.085-.121-.128-.181-2.113-2.89-5.61-4.423-9.169-4.038-3.558.393-6.648 2.688-8.081 5.969-5.902 13.513-17.745 23.463-31.764 27.059-3.277-7.578-3.688-16.395-.985-24.585 3.289-9.965 10.575-17.537 19.991-20.773l73.694-25.333c3.269-1.127 6.656-1.68 10.051-1.68zm-33.224-11.506-20 6.875v-51.877c0-5.522-4.477-10-10-10h-80.935l33.66-81.156h48.984l19.989 19.758c5.276 5.215 8.302 12.461 8.302 19.88zm-98.926-136.158-33.66 81.156h-21.646l33.658-81.156zm-13.353-20 13.272-32h21.65l-13.272 32zm88.096-32c8.822 0 16 7.178 16 16s-7.178 16-16 16h-44.796l13.272-32zm-41.151-81.194 18.476 7.656-22.205 53.537h-21.65zm-154.974 81.194h99.648l-13.272 32h-86.376c-8.822 0-16-7.178-16-16s7.178-16 16-16zm192.356 387.741h-188.586c-15.413 0-27.953-12.539-27.953-27.952v-268.152c0-7.419 3.026-14.665 8.303-19.88l19.989-19.758h73.973l-33.658 81.156h-38.607c-5.523 0-10 4.478-10 10v60.307c0 5.522 4.477 10 10 10s10-4.478 10-10v-50.307h164.491v48.752l-17.024 5.852c-15.378 5.287-27.217 17.468-32.482 33.42-3.594 10.892-3.644 22.534-.419 33.159-1.534 10.838-.474 21.986 3.108 32.404 4.978 14.478 12.527 28.368 21.916 40.998h-139.59v-54.278c0-5.522-4.477-10-10-10s-10 4.478-10 10v64.278c0 5.522 4.477 10 10 10h167.079c7.493 7.328 15.617 13.934 24.178 19.595-1.55.266-3.127.406-4.718.406zm50.738-1.199c-38.716-9.775-76.857-46.07-90.69-86.303-.866-2.519-1.501-5.099-1.952-7.707 17.558-3.018 33.172-12.944 43.445-27.283 8.599 6.985 18.854 11.828 29.863 13.986 3.513.685 7.126-.554 9.474-3.257 7.355-8.47 12.465-18.596 14.952-29.39 8.47 2.499 17.316 3.281 26.012 2.404-13.297 21.745-21.64 47.018-23.76 71.777-2.204-.949-4.75-1.123-7.198-.28-5.223 1.796-8.001 7.485-6.206 12.708l2.563 7.455c1.425 4.146 5.304 6.752 9.456 6.752.527 0 1.059-.043 1.591-.13.43 4.008 1.032 7.963 1.846 11.839 2.099 9.995 6.674 19.043 13.056 26.489-7.172 2.454-14.96 2.829-22.452.94zm59.524-.979c-15.342-3.222-27.336-15.217-30.558-30.558-8.206-39.079 7.671-89.279 37.751-119.365 1.883-1.883 3.924-3.586 6.069-5.136 10.41 14.444 26.172 24.116 43.581 27.06-2.505 10.794-2.357 22.137.537 32.978.923 3.459 3.625 6.161 7.083 7.084 10.838 2.892 22.177 3.04 32.97.537 2.938 17.389 12.613 33.162 27.068 43.581-1.55 2.146-3.255 4.186-5.137 6.068-30.084 30.08-80.286 45.954-119.364 37.751z"/><path d="m359.976 431.951-4.035 4.034c-3.905 3.905-3.906 10.236 0 14.142 1.953 1.953 4.512 2.93 7.071 2.93s5.118-.977 7.071-2.929l4.035-4.034c3.905-3.905 3.906-10.236 0-14.142-3.905-3.905-10.236-3.905-14.142-.001z"/><path d="m364.434 399.208 3.337-3.337c3.906-3.904 3.906-10.236.001-14.142-3.905-3.905-10.237-3.905-14.142-.001l-3.337 3.337c-3.906 3.904-3.906 10.236-.001 14.142 1.953 1.953 4.512 2.93 7.072 2.93 2.558 0 5.117-.977 7.07-2.929z"/><path d="m410.502 437.992-3.643 3.643c-3.905 3.905-3.905 10.237 0 14.143 1.953 1.952 4.512 2.929 7.071 2.929s5.119-.977 7.071-2.929l3.643-3.643c3.905-3.905 3.905-10.237 0-14.143-3.904-3.904-10.236-3.904-14.142 0z"/><circle cx="50" cy="352.726" r="10"/></g></g></svg>