<?xml version="1.0" encoding="iso-8859-1"?>
<!-- Generator: Adobe Illustrator 19.0.0, SVG Export Plug-In . SVG Version: 6.00 Build 0)  -->
<svg version="1.1" id="Capa_1" xmlns="http://www.w3.org/2000/svg" xmlns:xlink="http://www.w3.org/1999/xlink" x="0px" y="0px"
	 viewBox="0 0 512.001 512.001" style="enable-background:new 0 0 512.001 512.001;" xml:space="preserve">
<g>
	<g>
		<path style="fill: #f4f4f4" d="M506.256,216.064c10.426-42.93,6.611-87.093-11.032-127.715c-1.891-4.353-3.954-8.685-6.137-12.883
			c-2.563-5.243-8.058-8.707-14.223-8.393c-7.984,0.396-14.253,6.987-14.253,14.98c0,0.532,0.028,1.063,0.084,1.589
			c5.404,54.761-28.497,108.89-79.789,129.265c-34.095-27.803-77.584-44.501-124.906-44.501c-47.321,0-90.811,16.698-124.906,44.501
			c-51.31-20.382-85.217-74.545-79.782-129.328c0.052-0.507,0.078-1.018,0.078-1.529c0-7.994-6.27-14.582-14.253-14.978
			c-6.153-0.308-11.658,3.149-14.222,8.393c-2.184,4.198-4.247,8.53-6.138,12.884C-0.866,128.972-4.681,173.136,5.745,216.065
			c9.303,38.304,30.009,73.548,58.707,100.26c-3.151,12.056-5.184,24.557-5.998,37.385c-18.679,6.143-32.207,23.742-32.207,44.451
			c0,25.799,20.989,46.788,46.788,46.788h365.927c25.799,0,46.788-20.989,46.788-46.788c0-20.709-13.529-38.307-32.207-44.451
			c-0.814-12.828-2.845-25.329-5.998-37.385C476.247,289.612,496.952,254.368,506.256,216.064z M300.892,204.503
			c54.596,15.16,98.092,57.26,115.203,111.022c0.081,0.282,0.175,0.56,0.272,0.838c3.504,11.214,5.863,22.929,6.937,35.007H300.892
			V204.503z M241.104,199.067c4.91-0.434,9.876-0.666,14.896-0.666c5.02,0,9.987,0.232,14.896,0.666V351.37h-29.792V199.067z
			 M211.11,204.503V351.37H88.699C94.957,280.95,144.868,222.897,211.11,204.503z M31.174,150.36
			c4.202,10.87,9.644,21.362,16.263,31.245c15.424,23.032,36.381,41.548,60.374,53.663c-13.091,14.78-24.021,31.517-32.263,49.723
			C42.013,248.513,26.125,198.975,31.174,150.36z M455.759,398.16c0,9.26-7.534,16.794-16.794,16.794H73.038
			c-9.26,0-16.794-7.534-16.794-16.794s7.534-16.795,16.794-16.795h365.927C448.225,381.365,455.759,388.899,455.759,398.16z
			 M436.456,284.991c-8.243-18.206-19.173-34.943-32.264-49.723c23.992-12.115,44.95-30.631,60.374-53.663
			c6.619-9.884,12.061-20.376,16.263-31.246C485.878,198.974,469.991,248.513,436.456,284.991z"/>
	</g>
</g>
<g>
</g>
<g>
</g>
<g>
</g>
<g>
</g>
<g>
</g>
<g>
</g>
<g>
</g>
<g>
</g>
<g>
</g>
<g>
</g>
<g>
</g>
<g>
</g>
<g>
</g>
<g>
</g>
<g>
</g>
</svg>
